<?xml version="1.0" encoding="UTF-8" standalone="no"?>
<svg
   xmlns:dc="http://purl.org/dc/elements/1.1/"
   xmlns:cc="http://creativecommons.org/ns#"
   xmlns:rdf="http://www.w3.org/1999/02/22-rdf-syntax-ns#"
   xmlns:svg="http://www.w3.org/2000/svg"
   xmlns="http://www.w3.org/2000/svg"
   xmlns:sodipodi="http://sodipodi.sourceforge.net/DTD/sodipodi-0.dtd"
   xmlns:inkscape="http://www.inkscape.org/namespaces/inkscape"
   inkscape:version="1.0 (4035a4f, 2020-05-01)"
   id="svg1198"
   version="1.1"
   viewBox="0 0 46.503649 11.1125"
   height="42"
   width="175.76173">
  <defs
     id="defs1192" />
  <metadata
     id="metadata1195">
    <rdf:RDF>
      <cc:Work
         rdf:about="">
        <dc:format>image/svg+xml</dc:format>
        <dc:type
           rdf:resource="http://purl.org/dc/dcmitype/StillImage" />
        <dc:title></dc:title>
      </cc:Work>
    </rdf:RDF>
  </metadata>
  <g
     transform="translate(-76.267687,60.384131)"
     id="layer1"
     inkscape:groupmode="layer"
     inkscape:label="Layer 1">
    <g
       transform="matrix(0.29543921,0,0,0.29543921,53.735222,-42.544291)"
       id="g1912">
      <path
         sodipodi:nodetypes="cscsssccccsccscscscscscscscscsscscsssc"
         id="path1163"
         style="font-style:normal;font-variant:normal;font-weight:normal;font-stretch:normal;font-size:50.8px;line-height:1.25;font-family:Flamenco;-inkscape-font-specification:Flamenco;white-space:pre;shape-inside:url(#rect835);fill:white;fill-opacity:1;stroke:none;stroke-width:1.32292;stroke-miterlimit:4;stroke-dasharray:none;stroke-opacity:1"
         d="m 90.085088,-41.617431 c -2.2352,-0.6096 -4.1487,-0.9144 -5.7404,-0.9144 -1.5579,0 -2.8448,0.3048 -3.8608,0.9144 -0.9821,0.6096 -1.4732,1.4732 -1.4732,2.5908 0,1.0837 0.3217,1.9304 0.9652,2.54 0.6435,0.6096 1.524,0.9144 2.6416,0.9144 3.1157,0 5.6049,-1.6933 7.4676,-5.08 z m 3.5348,5.4864 c 0.8255,0.097 0.7552,-0.1048 1.2065,0.3556 0.237,0.2371 0.3556,0.5249 0.3556,0.8636 0,0.3387 -0.1186,0.6265 -0.3556,0.8636 -1.35,0.4498 -2.4927,0.484 -3.7761,-0.508 -0.6435,-0.5419 -0.9652,-1.3039 -0.9652,-2.286 0,-0.1693 0.017,-0.3556 0.051,-0.5588 -1.7949,2.7771 -4.4027,4.1656 -7.8232,4.1656 -1.8965,0 -3.3867,-0.508 -4.4704,-1.524 -1.0499,-1.016 -1.5748,-2.4215 -1.5748,-4.2164 0,-1.8288 0.7112,-3.2512 2.1336,-4.2672 1.4563,-1.0499 3.2512,-1.5748 5.3848,-1.5748 2.1675,0 4.2672,0.3556 6.2992,1.0668 v -3.5052 c 0,-1.6256 -0.5927,-2.6755 -1.778,-3.1496 -0.9144,-0.3387 -2.1844,-0.508 -3.81,-0.508 -1.5917,0 -3.0649,0.2709 -4.4196,0.8128 v 1.6129 c 0,0.3387 -0.1355,0.6265 -0.4064,0.8636 -0.2709,0.2032 -0.5927,0.3048 -0.9652,0.3048 -0.3725,0 -0.6943,-0.1016 -0.9652,-0.3048 -0.2709,-0.2371 -0.4064,-0.5249 -0.4064,-0.8636 v -2.2733 c 0,-0.4403 0.2201,-0.779 0.6604,-1.0161 1.6595,-0.9822 3.8608,-1.4733 6.604,-1.4733 2.7432,0 4.7921,0.4573 6.1468,1.3717 1.3547,0.8806 2.032,2.4216 2.032,4.6229 v 10.16 c 0,0.6435 1.7568,0.9652 0.8424,0.9652 z" />
      <path
         sodipodi:nodetypes="cscssscccscscscscsscscscsccsccscscscscscscsccs"
         id="path1165"
         style="font-style:normal;font-variant:normal;font-weight:normal;font-stretch:normal;font-size:50.8px;line-height:1.25;font-family:Flamenco;-inkscape-font-specification:Flamenco;white-space:pre;shape-inside:url(#rect835);fill:white;fill-opacity:1;stroke:none;stroke-width:1.32292;stroke-miterlimit:4;stroke-dasharray:none;stroke-opacity:1"
         d="m 102.33899,-33.184631 c -1.2869,0.745101 -1.9304,1.845702 -1.9304,3.302 0,1.490102 0.6096,2.658502 1.8288,3.5052 1.2531,0.846701 2.9633,1.27 5.1308,1.27 2.1675,0 4.1148,-0.372499 5.842,-1.1176 1.7272,-0.745098 2.5908,-1.761098 2.5908,-3.048 0,-1.388499 -1.2192,-2.218298 -3.6576,-2.4892 -0.8467,-0.068 -3.5391,-0.4064 -8.0772,-1.016 -0.7451,-0.135501 -1.3208,-0.270899 -1.7272,-0.4064 z m 10.8204,-12.8016 c 0,-1.4901 -0.508,-2.6924 -1.524,-3.6068 -0.9821,-0.9483 -2.2691,-1.4224 -3.8608,-1.4224 -1.5579,0 -2.8448,0.4741 -3.8608,1.4224 -0.9821,0.9144 -1.4732,2.1167 -1.4732,3.6068 0,1.4901 0.4911,2.7093 1.4732,3.6576 1.016,0.9144 2.3029,1.3716 3.8608,1.3716 1.5917,0 2.8787,-0.4572 3.8608,-1.3716 1.016,-0.9483 1.524,-2.1675 1.524,-3.6576 z m 1.524,-14.3979 c 0.5419,0 0.9144,0.2879 1.1176,0.8636 0.4741,1.1854 0.7112,2.7813 0.7112,3.7296 0,1.9644 -0.8128,3.624 -2.4384,4.9787 1.2192,1.2531 1.8288,2.9295 1.8288,5.0292 0,2.0997 -0.7959,3.8269 -2.3876,5.1816 -1.5579,1.3208 -3.4713,1.9812 -5.7404,1.9812 -1.016,0 -1.9812,-0.1355 -2.8956,-0.4064 -0.7789,0.2371 -1.4732,0.6096 -2.0828,1.1176 -0.5757,0.4741 -0.8636,0.9483 -0.8636,1.4224 0,0.6435 0.8467,1.1176 2.54,1.4224 0.7451,0.1016 3.4375,0.4233 8.0772,0.9652 3.9963,0.508 5.9944,2.116701 5.9944,4.826 0,2.099702 -1.2023,3.7084 -3.6068,4.826 -2.3707,1.1176 -4.9107,1.6764 -7.62,1.6764 -2.6755,0 -4.9615,-0.592698 -6.858,-1.778 -1.862702,-1.151498 -2.794002,-2.777098 -2.794002,-4.8768 0,-2.099699 0.8975,-3.691501 2.692402,-4.7752 -0.745102,-0.4403 -1.117602,-1.2023 -1.117602,-2.286 0,-1.4901 1.168402,-2.6924 3.505202,-3.6068 -1.9981,-1.524 -2.997202,-3.4205 -2.997202,-5.6896 0,-2.3029 0.745102,-4.1317 2.235202,-5.4864 1.4901,-1.3887 3.2851,-2.083 5.3848,-2.083 2.1336,0 3.81,0.3895 5.0292,1.1685 0.9144,-0.9145 1.3716,-2.0829 1.3716,-3.5054 0,-0.7112 -0.1185,-1.9008 -0.3556,-2.5104 -0.4064,-1.016 -0.2032,-1.6933 0.6096,-2.032 0.2371,-0.1016 0.4572,-0.1524 0.6604,-0.1524 z" />
      <path
         sodipodi:nodetypes="sscscsscscscsccscscsssscscs"
         id="path1167"
         style="font-style:normal;font-variant:normal;font-weight:normal;font-stretch:normal;font-size:50.8px;line-height:1.25;font-family:Flamenco;-inkscape-font-specification:Flamenco;white-space:pre;shape-inside:url(#rect835);fill:white;fill-opacity:1;stroke:none;stroke-width:1.32292;stroke-miterlimit:4;stroke-dasharray:none;stroke-opacity:1"
         d="m 121.04929,-52.742731 h 1.0033 c 2.1336,0 3.2343,1.1515 3.302,3.4545 1.8288,-2.6417 3.9963,-3.9626 6.5024,-3.9626 1.4224,0 2.6247,0.271 3.6068,0.8129 0.4741,0.2709 0.7112,0.6266 0.7112,1.0668 v 2.6798 c 0,0.3387 -0.1355,0.6265 -0.4064,0.8636 -0.2709,0.2032 -0.5927,0.3048 -0.9652,0.3048 -0.3725,0 -0.6943,-0.1016 -0.9652,-0.3048 -0.2709,-0.2371 -0.4064,-0.5249 -0.4064,-0.8636 v -1.9685 c -0.4403,-0.1694 -1.1007,-0.254 -1.9812,-0.254 -0.8805,0 -1.8796,0.4233 -2.9972,1.27 -1.1176,0.8128 -2.0828,2.032 -2.8956,3.6576 v 11.5824 c 0,0.3387 -0.1355,0.6096 -0.4064,0.8128 -0.2709,0.237101 -0.5927,0.3556 -0.9652,0.3556 -0.3725,0 -0.6943,-0.118499 -0.9652,-0.3556 -0.2709,-0.2032 -0.4064,-0.4741 -0.4064,-0.8128 v -14.986 c 0,-0.6435 -0.3387,-0.9652 -1.016,-0.9652 h -0.7493 c -0.3386,0 -0.6265,-0.1016 -0.8636,-0.3048 -0.2032,-0.2371 -0.3048,-0.525 -0.3048,-0.8637 0,-0.3386 0.1016,-0.6265 0.3048,-0.8636 0.2371,-0.2371 0.525,-0.3556 0.8636,-0.3556 z" />
      <path
         id="path1169"
         style="font-style:normal;font-variant:normal;font-weight:normal;font-stretch:normal;font-size:50.8px;line-height:1.25;font-family:Flamenco;-inkscape-font-specification:Flamenco;white-space:pre;shape-inside:url(#rect835);fill:white;fill-opacity:1;stroke:none;stroke-width:1.32292;stroke-miterlimit:4;stroke-dasharray:none;stroke-opacity:1"
         d="m 153.12699,-44.919431 q -0.1524,-2.7432 -1.6256,-4.3688 -1.4224,-1.6256 -4.1656,-1.6256 -2.6924,0 -4.5212,1.6764 -1.8288,1.6256 -2.286,4.318 z m 0.1016,6.2992 q 0.3556,-0.6096 0.8128,-0.6096 0.4572,0 0.9144,0.254 0.4572,0.2032 0.6096,0.7112 0.2032,0.4572 -0.051,0.8636 -2.5908,4.1656 -8.2296,4.1656 -4.4704,0 -7.0612,-2.8448 -2.54,-2.8956 -2.54,-7.2644 0,-4.3688 2.6416,-7.112 2.6416,-2.7942 6.9596,-2.7942 4.318,0 6.4008,2.591 2.1336,2.5908 2.1336,6.9088 0,1.1684 -1.3208,1.1684 l -14.0716,0.051 q 0.2032,3.1496 2.032,5.08 1.8796,1.8796 4.826,1.8796 3.9624,0 5.9436,-3.048 z" />
      <path
         id="path1171"
         style="font-style:normal;font-variant:normal;font-weight:normal;font-stretch:normal;font-size:50.8px;line-height:1.25;font-family:Flamenco;-inkscape-font-specification:Flamenco;white-space:pre;shape-inside:url(#rect835);fill:white;fill-opacity:1;stroke:none;stroke-width:1.32292;stroke-miterlimit:4;stroke-dasharray:none;stroke-opacity:1"
         d="m 174.92199,-44.919431 q -0.1524,-2.7432 -1.6256,-4.3688 -1.4224,-1.6256 -4.1656,-1.6256 -2.6924,0 -4.5212,1.6764 -1.8288,1.6256 -2.286,4.318 z m 0.1016,6.2992 q 0.3556,-0.6096 0.8128,-0.6096 0.4572,0 0.9144,0.254 0.4572,0.2032 0.6096,0.7112 0.2032,0.4572 -0.051,0.8636 -2.5908,4.1656 -8.2296,4.1656 -4.4704,0 -7.0612,-2.8448 -2.54,-2.8956 -2.54,-7.2644 0,-4.3688 2.6416,-7.112 2.6416,-2.7942 6.9596,-2.7942 4.318,0 6.4008,2.591 2.1336,2.5908 2.1336,6.9088 0,1.1684 -1.3208,1.1684 l -14.0716,0.051 q 0.2032,3.1496 2.032,5.08 1.8796,1.8796 4.826,1.8796 3.9624,0 5.9436,-3.048 z" />
      <path
         sodipodi:nodetypes="sssscssssssscscscsssccscscscccsccscsscs"
         id="path1173"
         style="font-style:normal;font-variant:normal;font-weight:normal;font-stretch:normal;font-size:50.8px;line-height:1.25;font-family:Flamenco;-inkscape-font-specification:Flamenco;white-space:pre;shape-inside:url(#rect835);fill:white;fill-opacity:1;stroke:none;stroke-width:1.32292;stroke-miterlimit:4;stroke-dasharray:none;stroke-opacity:1"
         d="m 211.44909,-47.764231 v 11.7263 c 0,0.6435 -0.062,0.8341 0.8424,0.9652 l 0.9228,0.1337 c 0.3352,0.049 0.6096,0.1185 0.8128,0.3556 0.2371,0.237 0.3556,0.5249 0.3556,0.863601 0,0.3386 -0.1185,0.626499 -0.3556,0.8636 -0.2032,0.2032 -0.4776,0.353399 -0.8128,0.3048 l -0.9228,-0.133702 c -2.7148,-0.393298 -3.5856,-1.100598 -3.5856,-3.301999 v -11.7771 c 0,-2.0997 -0.9822,-3.1496 -2.9464,-3.1496 -2.6416,0 -4.826,1.4732 -6.5532,4.4196 v 12.0904 c 0,0.3387 -0.1355,0.6096 -0.4064,0.8128 -0.271,0.237101 -0.5927,0.3556 -0.9652,0.3556 -0.3726,0 -0.6943,-0.118499 -0.9652,-0.3556 -0.271,-0.2032 -0.4064,-0.4741 -0.4064,-0.8128 v -13.3604 c 0,-2.0997 -0.9822,-3.1496 -2.9464,-3.1496 -1.524,0 -2.811,0.3895 -3.8608,1.1684 -1.016,0.7789 -1.9982,1.9981 -2.9464,3.6576 v 11.684 c 0,0.3387 -0.1355,0.6096 -0.4064,0.8128 -0.271,0.237101 -0.5927,0.3556 -0.9652,0.3556 -0.3726,0 -0.6943,-0.118499 -0.9652,-0.3556 -0.271,-0.2032 -0.4064,-0.4741 -0.4064,-0.8128 v -14.986 c -0.8572,-2.2815 -1.6397,-1.6695 -2.8245,-2.313 -0.8716,-0.3909 -1.1571,-0.9871 -1.1675,-1.9374 0.7671,-1.0067 1.6374,-1.1751 2.4871,-0.9989 2.0145,0.4179 3.9132,3.3019 4.0449,5.3509 1.0498,-1.3547 2.0997,-2.3538 3.1496,-2.9973 1.0837,-0.6435 2.3876,-0.9653 3.9116,-0.9653 2.9125,0 4.7074,1.2193 5.3848,3.6578 1.016,-1.2192 2.0489,-2.1337 3.0988,-2.7433 1.0498,-0.6097 2.3706,-0.9145 3.9624,-0.9145 1.5917,0 2.8956,0.4742 3.9116,1.4225 1.016,0.9145 1.524,2.2692 1.524,4.0641 z" />
      <path
         id="path1175"
         style="font-style:normal;font-variant:normal;font-weight:normal;font-stretch:normal;font-size:50.8px;line-height:1.25;font-family:Flamenco;-inkscape-font-specification:Flamenco;white-space:pre;shape-inside:url(#rect835);fill:white;fill-opacity:1;stroke:none;stroke-width:1.32292;stroke-miterlimit:4;stroke-dasharray:none;stroke-opacity:1"
         d="m 230.98059,-44.919431 q -0.1524,-2.7432 -1.6256,-4.3688 -1.4224,-1.6256 -4.1656,-1.6256 -2.6924,0 -4.5212,1.6764 -1.8288,1.6256 -2.286,4.318 z m 0.1016,6.2992 q 0.3556,-0.6096 0.8128,-0.6096 0.4572,0 0.9144,0.254 0.4572,0.2032 0.6096,0.7112 0.2032,0.4572 -0.051,0.8636 -2.5908,4.1656 -8.2296,4.1656 -4.4704,0 -7.0612,-2.8448 -2.54,-2.8956 -2.54,-7.2644 0,-4.3688 2.6416,-7.112 2.6416,-2.7942 6.9596,-2.7942 4.318,0 6.4008,2.591 2.1336,2.5908 2.1336,6.9088 0,1.1684 -1.3208,1.1684 l -14.0716,0.051 q 0.2032,3.1496 2.032,5.08 1.8796,1.8796 4.826,1.8796 3.9624,0 5.9436,-3.048 z" />
    </g>
  </g>
</svg>
