<?xml version="1.0" encoding="UTF-8"?>
<svg width="308px" height="361px" viewBox="0 0 308 361" version="1.1" xmlns="http://www.w3.org/2000/svg" xmlns:xlink="http://www.w3.org/1999/xlink">
    <title>Stopwatch</title>
    <g id="Website" stroke="none" stroke-width="1" fill="none" fill-rule="evenodd">
        <g id="Artboard-Copy-25" transform="translate(-550.000000, -68.000000)" fill="white" fill-rule="nonzero">
            <path d="M721.327599,68 C730.332932,68 737.634477,75.3017891 737.634477,84.3098672 C737.634477,93.3179453 730.332932,100.620439 721.327599,100.620439 L721.327599,100.620439 L720.306878,100.620439 L720.306878,121.79323 C738.86033,123.754758 756.436766,129.030152 772.444053,137.008816 L772.444053,137.008816 L783.306141,119.93535 C788.141176,112.334607 798.220804,110.093164 805.81771,114.93 C813.415321,119.766131 815.654846,129.847338 810.820516,137.44667 L810.820516,137.44667 L799.932346,154.560326 C835.297398,182.807871 858,226.280873 858,274.965107 C858,359.900229 788.915881,429 704,429 C619.084119,429 550,359.900229 550,274.965107 C550,195.538762 610.414327,129.965791 687.693827,121.793936 L687.693827,121.793936 L687.693827,100.621145 L686.671696,100.621145 C677.665658,100.621145 670.364818,93.3186504 670.364818,84.3105723 C670.364818,75.3024941 677.666363,68 686.671696,68 L686.671696,68 Z M704,153.550654 C637.067292,153.550654 582.61305,208.017234 582.61305,274.965107 C582.61305,341.91298 637.067292,396.379561 704,396.379561 C770.932708,396.379561 825.38695,341.91298 825.38695,274.965107 C825.38695,208.017234 770.932708,153.550654 704,153.550654 Z M736.141515,214.607906 C742.11775,207.793645 752.515688,207.093041 759.362034,213.035438 C766.210515,218.979959 766.919126,229.320595 760.942891,236.132732 L760.942891,236.132732 L716.858197,286.39224 C710.883384,293.204378 700.486158,293.908521 693.637677,287.964708 C686.789196,282.021602 686.081297,271.679551 692.056821,264.867414 L692.056821,264.867414 Z" id="Stopwatch"></path>
        </g>
    </g>
</svg>